# xmcd
# 
# Track frame offsets:
#     150
#     7734
#     23702
#     44321
#     62784
#     81961
#     104451
#     121458
#     139143
#     157932
#     178550
# 
# Disc length: 2600
# 
# Revision: 0
# Processed by: cddbd v1.5.2PL0 Copyright (c) Steve Scherf et al.
# Submitted via: BonkEnc v1.0.8
# 
DISCID=840a260b
DTITLE=河合奈保子 - Members Only
DYEAR=1988
DGENRE=Country
TTITLE0=Overture
TTITLE1=Girls Like a Party
TTITLE2=ミックにOKと言ってくれ
TTITLE3=サーフボードにハイビスカスを
TTITLE4=アンカレッジ・コーリング
TTITLE5=Dear John
TTITLE6=GT天国
TTITLE7=メリルストリープ＆サリンジャー
TTITLE8=ローマでさよなら
TTITLE9=悲しい人
TTITLE10=パーティの後でもう一度
EXTD=
EXTT0=
EXTT1=
EXTT2=
EXTT3=
EXTT4=
EXTT5=
EXTT6=
EXTT7=
EXTT8=
EXTT9=
EXTT10=
PLAYORDER=
